<?xml version="1.0" encoding="UTF-8" standalone="no"?>
<!DOCTYPE svg PUBLIC "-//W3C//DTD SVG 1.1//EN" "http://www.w3.org/Graphics/SVG/1.1/DTD/svg11.dtd">
<!-- Created with Vectornator (http://vectornator.io/) -->
<svg height="1080.0px" stroke-miterlimit="10" style="fill-rule:nonzero;clip-rule:evenodd;stroke-linecap:round;stroke-linejoin:round;" version="1.1" viewBox="0 0 1920 1080" width="1920.0px" xml:space="preserve" xmlns="http://www.w3.org/2000/svg" xmlns:xlink="http://www.w3.org/1999/xlink">
<defs/>
<clipPath id="ArtboardFrame">
<rect height="1080" width="1920" x="0" y="0"/>
</clipPath>
<g clip-path="url(#ArtboardFrame)" id="レイヤー-2">
<path d="M-140-60L2080-60L2080 1220L-140 1220C-140 1220-140 343.759-140 23.7592C-140-296.241-140-60-140-60Z" fill="#fffcf9" fill-rule="nonzero" opacity="1" stroke="none"/>
</g>
<g id="レイヤー-1">
<g opacity="1">
<path d="M931.42 530.995C921.277 530.849 911 535.392 903.826 542.452C900.373 545.862 900.337 551.425 903.747 554.878C907.157 558.331 912.721 558.367 916.174 554.957C916.129 555.001 916.423 554.729 916.451 554.704C916.664 554.516 916.882 554.334 917.102 554.155C917.821 553.571 918.57 553.022 919.346 552.518C921.302 551.249 923.44 550.211 925.698 549.612C932.401 547.833 937.953 550.65 942.67 555.332C946.33 558.921 952.206 558.863 955.795 555.203C959.384 551.543 959.328 545.666 955.668 542.077C951.156 537.695 945.914 534.09 939.836 532.268C937.088 531.444 934.26 531.036 931.42 530.995Z" fill="#292f36" stroke="none"/>
</g>
<path d="M637.748 560.162C637.748 563.053 636.884 566.142 635.155 569.43C633.426 572.718 630.79 575.85 627.247 578.826C623.704 581.801 619.241 584.196 613.855 586.01C608.47 587.824 602.405 588.731 595.66 588.731C581.318 588.731 570.123 584.551 562.074 576.19C554.025 567.829 550 556.619 550 542.561C550 533.038 551.842 524.621 555.527 517.308C559.211 509.996 564.54 504.342 571.512 500.345C578.484 496.349 586.817 494.351 596.51 494.351C602.518 494.351 608.031 495.23 613.048 496.987C618.064 498.744 622.316 501.011 625.802 503.789C629.288 506.567 631.952 509.528 633.794 512.674C635.637 515.82 636.558 518.754 636.558 521.475C636.558 524.252 635.523 526.605 633.454 528.532C631.385 530.459 628.877 531.423 625.929 531.423C624.002 531.423 622.401 530.927 621.125 529.935C619.85 528.943 618.419 527.342 616.831 525.131C613.997 520.823 611.035 517.592 607.946 515.438C604.857 513.284 600.931 512.207 596.17 512.207C589.311 512.207 583.784 514.885 579.589 520.242C575.395 525.599 573.297 532.925 573.297 542.221C573.297 546.586 573.836 550.597 574.913 554.253C575.99 557.909 577.549 561.027 579.589 563.606C581.63 566.185 584.096 568.14 586.987 569.473C589.878 570.805 593.052 571.471 596.51 571.471C601.158 571.471 605.14 570.394 608.456 568.24C611.772 566.086 614.706 562.798 617.257 558.376C618.674 555.769 620.204 553.728 621.848 552.255C623.492 550.781 625.504 550.044 627.885 550.044C630.719 550.044 633.072 551.121 634.942 553.275C636.813 555.429 637.748 557.725 637.748 560.162Z" fill="#fd8850" fill-rule="nonzero" opacity="1" stroke="none"/>
<path d="M672.613 574.787L672.613 474.115C672.613 469.466 673.647 465.952 675.716 463.571C677.785 461.19 680.577 460 684.092 460C687.606 460 690.44 461.176 692.594 463.529C694.748 465.881 695.825 469.41 695.825 474.115L695.825 574.787C695.825 579.492 694.734 583.02 692.552 585.373C690.369 587.725 687.549 588.901 684.092 588.901C680.69 588.901 677.927 587.683 675.801 585.245C673.676 582.808 672.613 579.322 672.613 574.787Z" fill="#292f36" fill-rule="nonzero" opacity="1" stroke="none"/>
<path d="M761.98 507.7L761.98 574.787C761.98 579.435 760.875 582.949 758.664 585.33C756.453 587.711 753.647 588.901 750.246 588.901C746.845 588.901 744.082 587.683 741.956 585.245C739.83 582.808 738.768 579.322 738.768 574.787L738.768 508.38C738.768 503.789 739.83 500.331 741.956 498.007C744.082 495.683 746.845 494.521 750.246 494.521C753.647 494.521 756.453 495.683 758.664 498.007C760.875 500.331 761.98 503.562 761.98 507.7Z" fill="#292f36" fill-rule="nonzero" opacity="1" stroke="none"/>
<path d="M750.501 483.723C747.27 483.723 744.507 482.731 742.211 480.747C739.916 478.763 738.768 475.957 738.768 472.329C738.768 469.041 739.944 466.335 742.296 464.209C744.649 462.083 747.384 461.02 750.501 461.02C753.506 461.02 756.17 461.984 758.494 463.911C760.818 465.839 761.98 468.644 761.98 472.329C761.98 475.9 760.846 478.692 758.579 480.704C756.312 482.716 753.619 483.723 750.501 483.723Z" fill="#3aafb9" fill-rule="nonzero" opacity="1" stroke="none"/>
<path d="M862.741 578.273L842.249 544.602L829.665 556.506L829.665 574.957C829.665 579.435 828.489 582.879 826.137 585.288C823.784 587.697 821.078 588.901 818.017 588.901C814.445 588.901 811.64 587.711 809.599 585.33C807.558 582.949 806.538 579.435 806.538 574.787L806.538 475.815C806.538 470.657 807.53 466.731 809.514 464.039C811.498 461.346 814.332 460 818.017 460C821.588 460 824.422 461.219 826.519 463.656C828.617 466.094 829.665 469.693 829.665 474.455L829.665 530.743L855.769 503.364C859 499.963 861.466 497.639 863.166 496.392C864.867 495.145 866.936 494.521 869.373 494.521C872.264 494.521 874.673 495.442 876.6 497.284C878.528 499.127 879.491 501.437 879.491 504.214C879.491 507.615 876.345 512.15 870.053 517.819L857.724 529.127L881.532 566.539C883.289 569.317 884.55 571.428 885.316 572.874C886.081 574.319 886.464 575.694 886.464 576.997C886.464 580.682 885.457 583.587 883.445 585.713C881.433 587.838 878.783 588.901 875.495 588.901C872.661 588.901 870.478 588.136 868.948 586.606C867.417 585.075 865.348 582.297 862.741 578.273Z" fill="#292f36" fill-rule="nonzero" opacity="1" stroke="none"/>
<path d="M1061.6 560.162C1061.6 563.053 1060.74 566.142 1059.01 569.43C1057.28 572.718 1054.64 575.85 1051.1 578.826C1047.56 581.801 1043.09 584.196 1037.71 586.01C1032.32 587.824 1026.26 588.731 1019.51 588.731C1005.17 588.731 993.978 584.551 985.928 576.19C977.879 567.829 973.854 556.619 973.854 542.561C973.854 533.038 975.697 524.621 979.381 517.308C983.066 509.996 988.394 504.342 995.366 500.345C1002.34 496.349 1010.67 494.351 1020.36 494.351C1026.37 494.351 1031.89 495.23 1036.9 496.987C1041.92 498.744 1046.17 501.011 1049.66 503.789C1053.14 506.567 1055.81 509.528 1057.65 512.674C1059.49 515.82 1060.41 518.754 1060.41 521.475C1060.41 524.252 1059.38 526.605 1057.31 528.532C1055.24 530.459 1052.73 531.423 1049.78 531.423C1047.86 531.423 1046.26 530.927 1044.98 529.935C1043.7 528.943 1042.27 527.342 1040.69 525.131C1037.85 520.823 1034.89 517.592 1031.8 515.438C1028.71 513.284 1024.79 512.207 1020.02 512.207C1013.17 512.207 1007.64 514.885 1003.44 520.242C999.249 525.599 997.152 532.925 997.152 542.221C997.152 546.586 997.69 550.597 998.767 554.253C999.844 557.909 1001.4 561.027 1003.44 563.606C1005.48 566.185 1007.95 568.14 1010.84 569.473C1013.73 570.805 1016.91 571.471 1020.36 571.471C1025.01 571.471 1028.99 570.394 1032.31 568.24C1035.63 566.086 1038.56 562.798 1041.11 558.376C1042.53 555.769 1044.06 553.728 1045.7 552.255C1047.35 550.781 1049.36 550.044 1051.74 550.044C1054.57 550.044 1056.93 551.121 1058.8 553.275C1060.67 555.429 1061.6 557.725 1061.6 560.162Z" fill="#fd8850" fill-rule="nonzero" opacity="1" stroke="none"/>
<path d="M1096.47 574.787L1096.47 474.115C1096.47 469.466 1097.5 465.952 1099.57 463.571C1101.64 461.19 1104.43 460 1107.95 460C1111.46 460 1114.29 461.176 1116.45 463.529C1118.6 465.881 1119.68 469.41 1119.68 474.115L1119.68 574.787C1119.68 579.492 1118.59 583.02 1116.41 585.373C1114.22 587.725 1111.4 588.901 1107.95 588.901C1104.54 588.901 1101.78 587.683 1099.66 585.245C1097.53 582.808 1096.47 579.322 1096.47 574.787Z" fill="#292f36" fill-rule="nonzero" opacity="1" stroke="none"/>
<path d="M1221.29 575.807C1215.68 580.172 1210.25 583.445 1205.01 585.628C1199.76 587.81 1193.88 588.901 1187.37 588.901C1181.41 588.901 1176.18 587.725 1171.68 585.373C1167.17 583.02 1163.7 579.832 1161.26 575.807C1158.82 571.782 1157.61 567.418 1157.61 562.713C1157.61 556.364 1159.62 550.951 1163.64 546.473C1167.67 541.995 1173.19 538.99 1180.22 537.46C1181.7 537.12 1185.35 536.354 1191.19 535.164C1197.03 533.974 1202.03 532.883 1206.2 531.891C1210.36 530.899 1214.89 529.694 1219.76 528.277C1219.48 522.155 1218.24 517.663 1216.06 514.8C1213.88 511.937 1209.36 510.506 1202.5 510.506C1196.6 510.506 1192.17 511.328 1189.19 512.972C1186.22 514.616 1183.67 517.082 1181.54 520.369C1179.41 523.657 1177.91 525.825 1177.03 526.874C1176.16 527.923 1174.27 528.447 1171.38 528.447C1168.77 528.447 1166.52 527.611 1164.62 525.939C1162.72 524.266 1161.77 522.127 1161.77 519.519C1161.77 515.438 1163.22 511.47 1166.11 507.615C1169 503.761 1173.51 500.586 1179.63 498.092C1185.75 495.598 1193.37 494.351 1202.5 494.351C1212.7 494.351 1220.72 495.556 1226.56 497.965C1232.4 500.374 1236.52 504.186 1238.93 509.401C1241.34 514.616 1242.55 521.531 1242.55 530.147C1242.55 535.589 1242.53 540.209 1242.51 544.007C1242.48 547.805 1242.43 552.028 1242.38 556.676C1242.38 561.041 1243.1 565.59 1244.55 570.323C1245.99 575.056 1246.71 578.103 1246.71 579.463C1246.71 581.844 1245.59 584.012 1243.36 585.968C1241.12 587.923 1238.58 588.901 1235.75 588.901C1233.36 588.901 1231.01 587.782 1228.69 585.543C1226.36 583.304 1223.9 580.058 1221.29 575.807ZM1219.76 542.221C1216.36 543.468 1211.41 544.786 1204.92 546.175C1198.43 547.564 1193.94 548.584 1191.45 549.236C1188.95 549.888 1186.57 551.163 1184.3 553.062C1182.04 554.961 1180.9 557.611 1180.9 561.012C1180.9 564.527 1182.24 567.517 1184.9 569.983C1187.56 572.449 1191.05 573.681 1195.36 573.681C1199.95 573.681 1204.19 572.675 1208.07 570.663C1211.95 568.651 1214.8 566.057 1216.61 562.883C1218.71 559.368 1219.76 553.587 1219.76 545.537L1219.76 542.221Z" fill="#292f36" fill-rule="nonzero" opacity="1" stroke="none"/>
<path d="M1342.88 578.273L1322.39 544.602L1309.81 556.506L1309.81 574.957C1309.81 579.435 1308.63 582.879 1306.28 585.288C1303.93 587.697 1301.22 588.901 1298.16 588.901C1294.59 588.901 1291.78 587.711 1289.74 585.33C1287.7 582.949 1286.68 579.435 1286.68 574.787L1286.68 475.815C1286.68 470.657 1287.67 466.731 1289.66 464.039C1291.64 461.346 1294.47 460 1298.16 460C1301.73 460 1304.56 461.219 1306.66 463.656C1308.76 466.094 1309.81 469.693 1309.81 474.455L1309.81 530.743L1335.91 503.364C1339.14 499.963 1341.61 497.639 1343.31 496.392C1345.01 495.145 1347.08 494.521 1349.52 494.521C1352.41 494.521 1354.82 495.442 1356.74 497.284C1358.67 499.127 1359.63 501.437 1359.63 504.214C1359.63 507.615 1356.49 512.15 1350.2 517.819L1337.87 529.127L1361.67 566.539C1363.43 569.317 1364.69 571.428 1365.46 572.874C1366.22 574.319 1366.61 575.694 1366.61 576.997C1366.61 580.682 1365.6 583.587 1363.59 585.713C1361.58 587.838 1358.93 588.901 1355.64 588.901C1352.8 588.901 1350.62 588.136 1349.09 586.606C1347.56 585.075 1345.49 582.297 1342.88 578.273Z" fill="#292f36" fill-rule="nonzero" opacity="1" stroke="none"/>
<path d="M1461.12 568.653L1455.08 593.758L1461.12 568.653Z" fill="none" opacity="1" stroke="#292f36" stroke-linecap="butt" stroke-linejoin="round" stroke-width="8.62029"/>
<g opacity="1">
<path d="M1411.77 527.6C1412.45 528.26 1412.93 528.936 1413.23 529.627C1413.54 530.318 1413.67 531.137 1413.63 532.086C1413.59 533.034 1413.4 534.215 1413.05 535.63C1412.8 536.691 1412.64 537.48 1412.56 537.996C1412.49 538.511 1412.5 538.919 1412.59 539.217C1412.67 539.516 1412.81 539.731 1413 539.862C1413.19 539.993 1413.53 540.157 1414.02 540.354C1414.43 540.509 1414.73 540.792 1414.93 541.201C1415.12 541.611 1415.15 542.094 1415.02 542.652C1414.71 543.949 1413.74 544.401 1412.11 544.009C1411.1 543.767 1410.25 543.347 1409.56 542.749C1408.86 542.151 1408.39 541.428 1408.14 540.579C1407.89 539.73 1407.87 538.822 1408.09 537.855C1408.45 536.217 1408.73 534.902 1408.94 533.908C1409.14 532.914 1409.25 532.264 1409.25 531.958C1409.26 531.2 1409.14 530.6 1408.9 530.157C1408.66 529.714 1408.32 529.271 1407.87 528.828C1407.42 528.385 1407.11 528.011 1406.95 527.706C1406.79 527.401 1406.78 526.975 1406.91 526.428C1407.1 525.635 1407.56 525.118 1408.3 524.876C1409.21 524.585 1409.88 524.312 1410.3 524.055C1410.72 523.799 1411.06 523.422 1411.33 522.925C1411.59 522.428 1411.81 521.868 1411.99 521.246C1412.16 520.625 1412.55 519.124 1413.17 516.745C1413.56 515.273 1414.33 514.208 1415.48 513.549C1416.63 512.89 1417.98 512.748 1419.54 513.124C1421.17 513.516 1421.83 514.349 1421.52 515.625C1421.38 516.204 1421.14 516.627 1420.79 516.894C1420.44 517.161 1420.04 517.269 1419.59 517.219C1418.93 517.15 1418.45 517.17 1418.16 517.281C1417.86 517.391 1417.62 517.683 1417.42 518.158C1417.22 518.632 1416.94 519.574 1416.58 520.983C1416.23 522.361 1415.87 523.474 1415.5 524.322C1415.14 525.17 1414.67 525.853 1414.08 526.369C1413.49 526.885 1412.72 527.296 1411.77 527.6Z" fill="#292f36" fill-rule="nonzero" opacity="1" stroke="none"/>
<path d="M1427.76 531.448C1427.25 530.94 1426.85 530.442 1426.57 529.955C1426.29 529.467 1426.1 528.911 1425.99 528.284C1425.88 527.657 1425.87 526.943 1425.96 526.142C1426.05 525.341 1426.22 524.415 1426.47 523.365C1426.72 522.347 1426.88 521.562 1426.97 521.01C1427.06 520.458 1427.06 520.042 1426.99 519.764C1426.91 519.485 1426.77 519.272 1426.55 519.124C1426.34 518.975 1425.99 518.816 1425.52 518.645C1425.12 518.493 1424.82 518.216 1424.62 517.816C1424.42 517.416 1424.39 516.926 1424.53 516.348C1424.83 515.072 1425.79 514.628 1427.39 515.014C1428.42 515.262 1429.28 515.681 1429.96 516.27C1430.65 516.86 1431.12 517.581 1431.39 518.434C1431.66 519.287 1431.69 520.192 1431.47 521.149C1430.68 524.723 1430.28 526.698 1430.29 527.073C1430.29 527.823 1430.42 528.424 1430.68 528.877C1430.93 529.329 1431.27 529.756 1431.69 530.157C1432.11 530.558 1432.4 530.927 1432.57 531.263C1432.74 531.599 1432.76 532.051 1432.62 532.619C1432.43 533.423 1431.97 533.937 1431.25 534.16C1430.37 534.434 1429.71 534.704 1429.27 534.968C1428.84 535.232 1428.49 535.608 1428.23 536.094C1427.97 536.581 1427.7 537.341 1427.42 538.374C1427.14 539.407 1426.8 540.702 1426.39 542.259C1426 543.73 1425.22 544.799 1424.06 545.466C1422.9 546.133 1421.53 546.278 1419.96 545.899C1419.18 545.713 1418.63 545.403 1418.29 544.971C1417.96 544.539 1417.87 544.007 1418.02 543.374C1418.1 543.021 1418.25 542.712 1418.45 542.45C1418.66 542.187 1418.89 542.001 1419.14 541.892C1419.39 541.783 1419.66 541.746 1419.95 541.781C1420.46 541.836 1420.85 541.845 1421.12 541.807C1421.39 541.769 1421.62 541.632 1421.81 541.395C1422 541.157 1422.18 540.783 1422.34 540.273C1422.5 539.762 1422.71 539.009 1422.95 538.012C1423.32 536.538 1423.69 535.402 1424.05 534.603C1424.4 533.804 1424.87 533.157 1425.45 532.66C1426.02 532.164 1426.79 531.76 1427.76 531.448Z" fill="#292f36" fill-rule="nonzero" opacity="1" stroke="none"/>
<path d="M1438.05 543.4C1437.32 543.224 1436.74 542.855 1436.32 542.293C1435.89 541.731 1435.77 541.059 1435.96 540.277C1436.12 539.601 1436.52 539.096 1437.15 538.76C1437.78 538.425 1438.45 538.342 1439.16 538.513C1439.69 538.641 1440.14 538.896 1440.5 539.278C1440.87 539.661 1441.1 540.152 1441.22 540.752C1441.33 541.352 1441.29 542.049 1441.1 542.842C1440.85 543.903 1440.37 544.841 1439.69 545.656C1439 546.472 1438.25 547.069 1437.45 547.449C1436.65 547.829 1435.98 547.954 1435.44 547.824C1435.1 547.741 1434.85 547.565 1434.69 547.294C1434.53 547.024 1434.49 546.744 1434.56 546.455C1434.66 546.015 1434.97 545.715 1435.48 545.553C1436.94 545.179 1437.8 544.461 1438.05 543.4ZM1439.5 527.37C1439.69 526.609 1440.08 526.079 1440.67 525.779C1441.26 525.48 1441.91 525.414 1442.6 525.582C1443.28 525.744 1443.81 526.096 1444.19 526.637C1444.58 527.177 1444.68 527.823 1444.5 528.573C1444.35 529.184 1443.96 529.677 1443.33 530.051C1442.69 530.426 1442.07 530.538 1441.45 530.389C1440.98 530.277 1440.58 530.068 1440.25 529.762C1439.92 529.455 1439.69 529.095 1439.55 528.682C1439.41 528.268 1439.39 527.831 1439.5 527.37Z" fill="#292f36" fill-rule="nonzero" opacity="1" stroke="none"/>
</g>
<path d="M1455.75 477.052L1502.41 488.287L1455.75 477.052Z" fill="none" opacity="1" stroke="#fd8850" stroke-linecap="butt" stroke-linejoin="round" stroke-width="6.89623"/>
<path d="M1512.79 490.783L1528.34 494.528L1512.79 490.783Z" fill="none" opacity="1" stroke="#fd8850" stroke-linecap="butt" stroke-linejoin="round" stroke-width="6.89623"/>
<path d="M1538.71 497.025L1549.08 499.522L1538.71 497.025Z" fill="none" opacity="1" stroke="#fd8850" stroke-linecap="butt" stroke-linejoin="round" stroke-width="6.89623"/>
<path d="M1468.89 490.839L1484.44 494.584L1468.89 490.839Z" fill="none" opacity="1" stroke="#fd8850" stroke-linecap="butt" stroke-linejoin="round" stroke-width="6.89623"/>
<path d="M1494.81 497.081L1520.74 503.322L1494.81 497.081Z" fill="none" opacity="1" stroke="#fd8850" stroke-linecap="butt" stroke-linejoin="round" stroke-width="6.89623"/>
<path d="M1546.66 509.564L1531.11 505.819L1546.66 509.564Z" fill="none" opacity="1" stroke="#fd8850" stroke-linecap="butt" stroke-linejoin="round" stroke-width="6.89623"/>
<path d="M1456.1 498.385L1476.84 503.378L1456.1 498.385Z" fill="none" opacity="1" stroke="#fd8850" stroke-linecap="butt" stroke-linejoin="round" stroke-width="6.89623"/>
<path d="M1487.21 505.875L1513.14 512.116L1487.21 505.875Z" fill="none" opacity="1" stroke="#fd8850" stroke-linecap="butt" stroke-linejoin="round" stroke-width="6.89623"/>
<path d="M1523.51 514.613L1544.25 519.606L1523.51 514.613Z" fill="none" opacity="1" stroke="#fd8850" stroke-linecap="butt" stroke-linejoin="round" stroke-width="6.89623"/>
<path d="M1495.16 518.413L1510.72 522.158L1495.16 518.413Z" fill="none" opacity="1" stroke="#fd8850" stroke-linecap="butt" stroke-linejoin="round" stroke-width="6.89623"/>
<path d="M1521.09 524.655L1541.83 529.648L1521.09 524.655Z" fill="none" opacity="1" stroke="#fd8850" stroke-linecap="butt" stroke-linejoin="round" stroke-width="6.89623"/>
<path d="M1487.56 527.207L1508.3 532.201L1487.56 527.207Z" fill="none" opacity="1" stroke="#fd8850" stroke-linecap="butt" stroke-linejoin="round" stroke-width="6.89623"/>
<path d="M1518.67 534.697L1539.41 539.691L1518.67 534.697Z" fill="none" opacity="1" stroke="#fd8850" stroke-linecap="butt" stroke-linejoin="round" stroke-width="6.89623"/>
<path d="M1469.59 533.505L1495.51 539.746L1469.59 533.505Z" fill="none" opacity="1" stroke="#fd8850" stroke-linecap="butt" stroke-linejoin="round" stroke-width="6.89623"/>
<path d="M1505.88 542.243L1516.25 544.74L1505.88 542.243Z" fill="none" opacity="1" stroke="#fd8850" stroke-linecap="butt" stroke-linejoin="round" stroke-width="6.89623"/>
<path d="M1536.99 549.733L1526.62 547.236L1536.99 549.733Z" fill="none" opacity="1" stroke="#fd8850" stroke-linecap="butt" stroke-linejoin="round" stroke-width="6.89623"/>
<path d="M1503.46 552.285L1513.83 554.782L1503.46 552.285Z" fill="none" opacity="1" stroke="#fd8850" stroke-linecap="butt" stroke-linejoin="round" stroke-width="6.89623"/>
<path d="M1534.58 559.775L1524.21 557.279L1534.58 559.775Z" fill="none" opacity="1" stroke="#fd8850" stroke-linecap="butt" stroke-linejoin="round" stroke-width="6.89623"/>
<g opacity="1">
<path d="M1419.53 448.463C1412.9 448.309 1406.2 451.054 1402.52 456.749C1400.52 459.838 1399.73 463.323 1398.88 466.849C1398 470.51 1397.12 474.172 1396.24 477.832C1392.88 491.743 1389.53 505.652 1386.16 519.561C1385.36 522.855 1384.56 526.149 1383.76 529.443C1382.42 534.973 1381.35 539.519 1383.21 545.283C1384.87 550.443 1388.69 554.423 1393.63 556.578C1396.82 557.968 1400.33 558.583 1403.7 559.399C1408.88 560.656 1414.06 561.909 1419.25 563.166C1450.02 570.626 1480.8 578.072 1511.58 585.495C1520.21 587.575 1528.07 590.596 1536.74 586.685C1538.04 586.099 1539.28 585.312 1540.39 584.415C1541.84 583.238 1543.09 581.827 1544.11 580.259C1545.46 578.168 1546.33 575.87 1546.96 573.473C1547.6 571.028 1546.14 568.53 1543.69 567.888C1541.24 567.247 1538.74 568.706 1538.1 571.151C1537.72 572.608 1537.25 574.018 1536.43 575.292C1534.02 579.023 1529.29 579.896 1525.15 579.318C1523.59 579.101 1522.13 578.645 1520.52 578.258C1519.23 577.947 1517.93 577.635 1516.64 577.323C1515.02 576.934 1513.4 576.544 1511.77 576.154C1509.51 575.609 1507.24 575.063 1504.97 574.518C1477.1 567.818 1449.22 561.145 1421.34 554.479C1415.18 553.006 1409.02 551.531 1402.86 550.058C1399.04 549.145 1394.89 548.314 1392.62 544.764C1389.51 539.896 1391.63 534.27 1392.82 529.302C1393.35 527.105 1393.88 524.907 1394.4 522.71C1398.6 505.129 1402.83 487.551 1407.06 469.977C1408.08 465.705 1408.81 460.357 1413.34 458.318C1415.22 457.472 1417.22 457.136 1419.28 457.175C1419.96 457.188 1420.63 457.242 1421.31 457.336C1421.48 457.361 1421.66 457.388 1421.83 457.42C1421.92 457.435 1422.18 457.491 1422.09 457.472C1424.42 458.017 1426.75 456.57 1427.3 454.24C1427.84 451.91 1426.4 449.575 1424.07 449.029C1422.58 448.685 1421.06 448.498 1419.53 448.463Z" fill="#292f36" stroke="none"/>
</g>
<path d="M1423.08 453.25L1547.52 483.21C1547.52 483.21 1563.08 486.955 1559.45 502.018C1555.83 517.082 1547.36 552.23 1547.36 552.23L1559.45 502.018" fill="none" opacity="1" stroke="#292f36" stroke-linecap="butt" stroke-linejoin="round" stroke-width="8.62029"/>
<path d="M1434.34 588.765L1481.01 600L1429.15 587.517L1481.01 600" fill="none" opacity="1" stroke="#292f36" stroke-linecap="butt" stroke-linejoin="round" stroke-width="8.62029"/>
<path d="M403.801 510.789L380 542.378L403.801 510.789Z" fill="none" opacity="1" stroke="#292f36" stroke-linecap="butt" stroke-linejoin="round" stroke-width="12.034"/>
<g opacity="1">
<path d="M459.447 478.932C456.331 478.595 452.177 481.253 449.606 482.53C449.075 482.794 448.539 483.06 448.007 483.324C441.034 486.787 434.119 490.39 427.014 493.575C420.565 496.467 414.115 499.361 407.666 502.253C404.85 503.515 399.858 505.011 398.346 508.102C396.083 512.725 399.635 515.82 402.282 518.935C407.343 524.89 412.409 530.843 417.471 536.796C420.993 540.938 424.514 545.076 428.036 549.218C430.017 551.547 431.995 553.881 433.976 556.21C435.737 558.281 437.503 560.348 439.264 562.419C440.608 564 441.824 565.683 443.863 566.431C446.648 567.452 449.023 566.307 451.524 565.277C452.858 564.728 454.196 564.177 455.531 563.628C456.866 563.079 458.199 562.533 459.533 561.984C462.536 560.748 465.537 559.511 468.54 558.275C471.209 557.176 473.88 556.079 476.549 554.981C478.044 554.366 479.637 553.828 481.073 553.088C482.304 552.454 483.465 551.695 484.66 550.994C491.284 547.108 497.911 543.221 504.535 539.336C505.405 540.938 506.275 542.541 507.146 544.143C509.936 549.277 512.725 554.411 515.515 559.545C517.537 563.267 519.559 566.99 521.581 570.712C520.163 571.444 518.744 572.18 517.326 572.913C511.225 576.065 505.121 579.212 499.02 582.364C484.94 589.638 470.855 596.902 456.771 604.167C452.076 606.588 447.384 609.011 442.689 611.433C442.31 611.628 441.93 611.824 441.551 612.02C440.137 610.189 438.72 608.361 437.306 606.53C427.828 594.257 418.358 581.976 408.885 569.7C401.246 559.799 393.604 549.899 385.964 539.999C383.924 537.353 380.124 536.865 377.479 538.906C374.834 540.947 374.345 544.746 376.386 547.391C391.659 567.196 406.937 586.997 422.202 606.808C423.729 608.789 425.255 610.772 426.781 612.753C427.697 613.942 428.613 615.127 429.529 616.315C430.445 617.504 431.365 618.694 432.281 619.882C434.273 622.467 436.074 625.42 439.75 625.585C442.251 625.697 444.703 624.065 446.843 622.964C450.132 621.272 453.422 619.58 456.71 617.889C468.453 611.848 480.195 605.8 491.941 599.765C503.217 593.971 514.493 588.182 525.771 582.39C527.18 581.666 528.591 580.943 530.001 580.219C531.205 579.6 532.651 578.988 533.659 578.079C535.438 576.474 536.26 574.054 535.794 571.698C535.457 569.993 534.124 567.976 533.33 566.507C533.099 566.079 532.868 565.65 532.637 565.222C532.405 564.793 532.175 564.365 531.944 563.937C529.86 560.081 527.778 556.225 525.695 552.37C522.686 546.801 519.677 541.232 516.668 535.663C515.743 533.95 514.84 532.221 513.89 530.522C513.523 529.864 513.215 529.165 512.767 528.559C511.747 527.176 510.228 525.968 508.987 524.769C506.696 522.554 504.403 520.341 502.111 518.125C495.236 511.48 488.363 504.835 481.488 498.19C476.904 493.76 472.324 489.328 467.74 484.898C465.514 482.747 462.781 479.293 459.447 478.932ZM457.641 492.634C459.373 494.301 461.105 495.967 462.837 497.633C467.686 502.298 472.535 506.964 477.384 511.629C483.254 517.275 489.122 522.922 494.992 528.569C495.327 528.891 495.66 529.214 495.994 529.535C491.716 532.048 487.436 534.562 483.157 537.074C480.504 538.633 477.894 540.325 475.178 541.77C474.102 542.342 472.823 542.715 471.692 543.181C469.023 544.281 466.356 545.38 463.687 546.48C459.351 548.268 455.01 550.056 450.674 551.844C449.765 552.218 448.855 552.592 447.946 552.967C447.846 552.849 447.744 552.731 447.643 552.613C445.66 550.284 443.68 547.954 441.698 545.625C434.429 537.087 427.159 528.551 419.89 520.013C417.971 517.759 416.051 515.506 414.132 513.253C417.393 511.784 420.652 510.315 423.913 508.846C427.946 507.029 432.038 505.302 436.026 503.386C443.273 499.904 450.473 496.29 457.641 492.634Z" fill="#292f36" stroke="none"/>
</g>
<path d="M443.864 561.146L439.684 620" fill="none" opacity="1" stroke="#292f36" stroke-linecap="butt" stroke-linejoin="round" stroke-width="12.034"/>
<path d="M426.199 514.352C427.559 513.607 438.302 529.306 439.194 531.797" fill="none" opacity="1" stroke="#fd8850" stroke-linecap="round" stroke-linejoin="round" stroke-width="6.40364"/>
<path d="M429.753 511.055C425.861 509.209 457.302 504.846 437.28 519.348" fill="none" opacity="1" stroke="#fd8850" stroke-linecap="round" stroke-linejoin="round" stroke-width="6.40364"/>
<path d="M444.827 519.126C447.066 520.188 451.57 520.547 453.959 519.655" fill="none" opacity="1" stroke="#fd8850" stroke-linecap="round" stroke-linejoin="round" stroke-width="6.40364"/>
</g>
</svg>
